<svg width="20" height="20" viewBox="0 0 20 20" fill="none" xmlns="http://www.w3.org/2000/svg">
<path d="M7.70174 1H6.32572C5.84967 1 5.41532 1.27155 5.20682 1.69951L1.2698 9.78078C1.09977 10.1298 1.10233 10.5381 1.27671 10.8849L3.64737 15.6002M7.70174 1H14.3434C14.8195 1 15.2538 1.27155 15.4623 1.69951L17.1038 5.06892M7.70174 1V5.06892M7.70174 5.06892H12.9674M7.70174 5.06892V15.6002M7.70174 5.06892L3.63283 10.3346L7.70174 15.6002M7.70174 5.06892L5.06892 10.3346L7.70174 15.6002M12.9674 5.06892V15.6002M12.9674 5.06892L15.6002 10.3346L12.9674 15.6002M12.9674 5.06892L17.2757 10.3346L12.9674 15.6002M12.9674 5.06892H17.1038M12.9674 15.6002H7.70174M12.9674 15.6002V19.6691M7.70174 15.6002H3.64737M12.9674 19.6691H14.3434C14.8195 19.6691 15.2538 19.3976 15.4623 18.9696L19.4036 10.8797C19.5712 10.5356 19.5712 10.1335 19.4036 9.78947L17.1038 5.06892M12.9674 19.6691H6.46038C5.98994 19.6691 5.55971 19.4039 5.3484 18.9836L3.64737 15.6002" stroke="#CCF575" stroke-width="0.622305"/>
</svg>
